<?xml version="1.0" encoding="iso-8859-1"?>
<!-- Uploaded to: SVG Repo, www.svgrepo.com, Generator: SVG Repo Mixer Tools -->
<svg height="800px" width="800px" version="1.1" id="Layer_1" xmlns="http://www.w3.org/2000/svg" xmlns:xlink="http://www.w3.org/1999/xlink" 
	 viewBox="0 0 392.533 392.533" xml:space="preserve">
<path style="fill:#FFFFFF;" d="M370.747,187.828V31.642c0-5.43-4.331-9.762-9.632-9.762H31.547c-5.301,0-9.632,4.396-9.632,9.762
	v156.186c0,5.43,4.331,9.762,9.632,9.762h224l2.78-42.796c0.84-9.503,11.055-12.994,18.036-7.564l44.865,38.465
	c1.552,1.487,2.457,2.78,2.909,4.008l3.297,7.822h33.681C366.352,197.525,370.747,193.129,370.747,187.828z"/>
<polyline style="fill:#FFC10D;" points="348.962,175.675 348.962,43.667 43.572,43.667 43.572,175.675 "/>
<g>
	<path style="fill:#194F82;" d="M204.541,127.836c-3.814-3.814-9.891-3.814-13.705,0l-18.941,19.006l-18.941-18.941
		c-3.62-3.62-10.02-3.62-13.705,0l-18.941,18.941l-18.941-19.006c-3.62-3.62-10.02-3.62-13.705,0l-25.794,25.859
		c-3.814,3.814-3.814,9.891,0,13.705c3.879,3.62,9.632,3.943,13.705,0l18.941-19.006l18.941,19.006c3.62,3.62,10.02,3.62,13.705,0
		l18.941-19.006l18.941,19.006c5.107,4.008,9.568,3.556,13.705,0l25.794-25.859C208.291,137.727,208.291,131.65,204.541,127.836z"/>
	<path style="fill:#194F82;" d="M326.982,68.491H68.848c-5.301,0-9.632-4.331-9.632-9.632s4.331-9.632,9.632-9.632h258.198
		c5.301,0,9.632,4.331,9.632,9.632S332.347,68.491,326.982,68.491z"/>
	<path style="fill:#194F82;" d="M324.396,105.016H68.848c-5.301,0-9.632-4.331-9.632-9.632c0-5.301,4.331-9.632,9.632-9.632h255.612
		c5.301,0,9.632,4.331,9.632,9.632C334.093,100.685,329.697,105.016,324.396,105.016z"/>
</g>
<polygon style="fill:#FFFFFF;" points="293.56,190.737 278.626,177.937 277.333,197.59 "/>
<polygon style="fill:#56ACE0;" points="308.234,208.192 279.596,220.345 328.145,335.804 356.784,323.65 "/>
<path style="fill:#FFFFFF;" d="M369.067,352.677l-3.814-8.986l-28.574,12.154l3.814,9.051c2.004,4.784,7.822,7.24,12.671,5.172
	l10.731-4.59C368.808,363.408,371.135,357.654,369.067,352.677z"/>
<path style="fill:#194F82;" d="M392.533,187.828V31.642c0-17.39-14.158-31.612-31.547-31.612H31.547C14.158,0.03,0,14.252,0,31.642
	v156.186c0,17.39,14.158,31.547,31.547,31.547h224l64.84,153.923c5.689,12.994,21.915,24.372,41.244,16.743l10.731-4.59
	c15.968-6.788,23.467-25.277,16.743-41.309l-52.622-124.962h24.501C378.376,219.311,392.533,205.153,392.533,187.828z
	 M369.067,352.677c2.069,4.978-0.259,10.667-5.172,12.735l-10.731,4.59c-4.848,2.069-10.667-0.388-12.671-5.172l-3.814-9.051
	l28.574-12.154L369.067,352.677z M356.784,323.65l-28.638,12.154l-48.614-115.459l28.574-12.154L356.784,323.65z M277.333,197.59
	l1.228-19.717l14.933,12.8L277.333,197.59z M327.305,197.525l-3.297-7.822c-0.453-1.228-1.487-2.651-2.909-4.008l-44.865-38.465
	c-6.982-5.43-17.131-1.939-18.036,7.564l-2.78,42.796H31.547c-5.301,0-9.632-4.396-9.632-9.762V31.642
	c0-5.43,4.331-9.762,9.632-9.762h329.568c5.301,0,9.632,4.396,9.632,9.762v156.186c0,5.43-4.331,9.762-9.632,9.762h-33.81V197.525z"
	/>
</svg>