<?xml version="1.0" encoding="iso-8859-1"?>
<!-- Uploaded to: SVG Repo, www.svgrepo.com, Generator: SVG Repo Mixer Tools -->
<svg height="800px" width="800px" version="1.1" id="Layer_1" xmlns="http://www.w3.org/2000/svg" xmlns:xlink="http://www.w3.org/1999/xlink" 
	 viewBox="0 0 392.628 392.628" xml:space="preserve">
<path style="fill:#FFFFFF;" d="M130.781,184.258c0-3.426-2.004-6.594-5.172-8.21c-23.273-11.895-52.234-11.895-75.442,0
	c-3.232,1.616-5.172,4.784-5.172,8.21v22.82h85.851v-22.82H130.781z"/>
<g>
	<polygon style="fill:#FFC10D;" points="25.278,228.799 51.912,326.738 123.799,326.738 150.433,228.799 	"/>
	<path style="fill:#FFC10D;" d="M87.856,113.276c7.758,0,13.964-6.271,13.964-13.964s-6.271-13.964-13.964-13.964
		s-13.964,6.271-13.964,13.964C73.892,107.005,80.098,113.276,87.856,113.276z"/>
</g>
<g>
	<path style="fill:#194F82;" d="M164.72,206.949h-12.154v-22.82c0-11.636-6.594-22.238-17.067-27.669
		c-29.35-14.998-66.004-14.998-95.289,0c-10.537,5.43-17.067,15.968-17.067,27.669v22.82H10.926
		c-6.465,0.388-12.541,5.883-10.537,13.77l28.832,105.956h-5.689c-6.012,0-10.925,4.848-10.925,10.925s4.978,10.99,10.99,10.99
		h128.517c6.012,0,10.925-4.848,10.925-10.925c0-6.012-4.848-10.925-10.925-10.925h-5.689l28.832-105.956
		C177.262,213.219,171.25,207.272,164.72,206.949z M51.912,326.738l-26.634-97.939h125.156l-26.634,97.875H51.912V326.738z
		 M44.866,184.258c0-3.426,2.004-6.594,5.172-8.21c23.273-11.895,52.234-11.895,75.442,0c3.232,1.616,5.172,4.784,5.172,8.21v22.82
		H44.866V184.258z"/>
	<path style="fill:#194F82;" d="M87.856,135.062c19.782,0,35.749-16.097,35.749-35.749c0-19.782-16.097-35.749-35.749-35.749
		c-19.782,0-35.749,16.097-35.749,35.749C52.041,119.029,68.138,135.062,87.856,135.062z M87.856,85.219
		c7.758,0,13.964,6.271,13.964,13.964c0,7.758-6.271,13.964-13.964,13.964s-13.964-6.271-13.964-13.964
		C73.827,91.49,80.098,85.219,87.856,85.219z"/>
</g>
<path style="fill:#FFFFFF;" d="M321.682,282.068c7.176,0,12.994-5.883,12.994-12.994c0-7.176-5.883-12.994-12.994-12.994
	c-7.176,0-12.994,5.883-12.994,12.994C308.623,276.185,314.506,282.068,321.682,282.068z"/>
<path style="fill:#56ACE0;" d="M321.682,332.492c-23.337,0-42.861,16.356-47.838,38.141h95.741
	C364.542,348.912,344.955,332.492,321.682,332.492z"/>
<g>
	<path style="fill:#194F82;" d="M321.682,303.854c19.135,0,34.844-15.58,34.844-34.844c0-19.135-15.58-34.844-34.844-34.844
		s-34.844,15.58-34.844,34.844S302.417,303.854,321.682,303.854z M321.682,256.015c7.176,0,12.994,5.883,12.994,12.994
		c0,7.176-5.883,12.994-12.994,12.994c-7.176,0-12.994-5.883-12.994-12.994C308.623,261.898,314.506,256.015,321.682,256.015z"/>
	<path style="fill:#194F82;" d="M392.534,379.942c-0.905-38.335-32.323-69.172-70.853-69.172c-39.111,0-70.853,31.806-70.853,70.853
		c0,6.012,4.848,10.925,10.925,10.925h119.919c0.065,0,0.065,0,0.065,0C389.948,392.484,393.245,385.631,392.534,379.942z
		 M273.779,370.698c4.913-21.786,24.566-38.141,47.838-38.141c23.337,0,42.861,16.356,47.838,38.141H273.779z"/>
</g>
<path style="fill:#FFC10D;" d="M234.991,163.118h28.38c2.521,0,4.913,0.84,6.982,2.457l20.04,16.485l0.453-8.663
	c0.323-5.818,5.107-10.343,10.925-10.343h6.012V131.7h-72.727v31.418H234.991z"/>
<path style="fill:#56ACE0;" d="M225.229,21.866h-72.663v31.354h6.012c5.818,0,10.602,4.59,10.925,10.343l0.453,8.663l20.04-16.485
	c1.939-1.616,4.396-2.457,6.982-2.457h28.38V21.866C225.359,21.866,225.229,21.866,225.229,21.866z"/>
<g>
	<path style="fill:#194F82;" d="M318.579,109.979h-94.513c-6.012,0-10.925,4.848-10.925,10.925v53.139
		c0,6.012,4.848,10.925,10.925,10.925h35.297l33.681,27.733c6.465,4.719,17.455,2.327,17.842-7.887l1.034-19.911h6.594
		c6.012,0,10.925-4.848,10.925-10.925v-53.139C329.504,114.827,324.591,109.979,318.579,109.979z M307.654,163.118h-6.012
		c-5.818,0-10.602,4.59-10.925,10.343l-0.453,8.663l-20.04-16.485c-1.939-1.616-4.396-2.457-6.982-2.457h-28.38v-31.354h72.663
		v31.289H307.654z"/>
	<path style="fill:#194F82;" d="M247.015,64.144V11.005c0-6.012-4.848-10.925-10.925-10.925h-94.384
		c-6.012,0-10.925,4.848-10.925,10.925v53.139c0,6.012,4.848,10.925,10.925,10.925h6.594l1.034,19.911
		c0.711,8.016,9.568,13.834,17.842,7.887l33.681-27.733h35.297C242.167,75.07,247.015,70.092,247.015,64.144z M189.997,55.74
		l-20.04,16.485l-0.453-8.663c-0.323-5.818-5.107-10.343-10.925-10.343h-6.012V21.93h72.663v31.354h-28.38
		C194.393,53.219,191.936,54.124,189.997,55.74z"/>
</g>
</svg>