<?xml version="1.0" encoding="iso-8859-1"?>
<!-- Uploaded to: SVG Repo, www.svgrepo.com, Generator: SVG Repo Mixer Tools -->
<svg version="1.1" id="Layer_1" xmlns="http://www.w3.org/2000/svg" xmlns:xlink="http://www.w3.org/1999/xlink" 
	 viewBox="0 0 392.598 392.598" xml:space="preserve">
<path style="fill:#194F82;" d="M381.737,369.382H10.925C4.913,369.382,0,374.23,0,380.307c0,6.012,4.848,10.925,10.925,10.925
	h370.747c6.012,0,10.925-4.849,10.925-10.925C392.598,374.23,387.749,369.382,381.737,369.382z"/>
<path style="fill:#56ACE0;" d="M348.638,134.974L196.331,23.071l-29.673,21.915h37.107c6.012,0,10.925,4.848,10.925,10.925
	c0,6.012-4.848,10.925-10.925,10.925h-66.715L101.947,92.63h28.574c6.012,0,10.925,4.848,10.925,10.925
	c0,6.012-4.848,10.925-10.925,10.925H72.21l-28.057,20.622h304.291C348.574,134.974,348.638,134.974,348.638,134.974z"/>
<g>
	<path style="fill:#FFFFFF;" d="M93.414,178.545h40.339c6.012,0,10.925-4.848,10.925-10.925v-10.925h-62.19v10.925
		C82.489,173.697,87.402,178.545,93.414,178.545z"/>
	<path style="fill:#FFFFFF;" d="M144.614,314.885c0-6.012-4.848-10.925-10.925-10.925H93.35c-6.012,0-10.925,4.849-10.925,10.925
		v10.925h62.19L144.614,314.885L144.614,314.885z"/>
</g>
<rect x="102.659" y="200.331" style="fill:#FFC10D;" width="21.786" height="81.778"/>
<g>
	<path style="fill:#FFFFFF;" d="M266.602,178.545h40.275c6.012,0,10.925-4.848,10.925-10.925v-10.925h-62.19v10.925
		C255.677,173.697,260.525,178.545,266.602,178.545z"/>
	<path style="fill:#FFFFFF;" d="M307.006,303.96h-40.339c-6.012,0-10.925,4.849-10.925,10.925v10.925h62.19v-10.925
		C317.867,308.873,313.018,303.96,307.006,303.96z"/>
</g>
<rect x="275.846" y="200.331" style="fill:#FFC10D;" width="21.786" height="81.778"/>
<path style="fill:#194F82;" d="M44.154,156.76h16.485v10.925c0,13.576,8.339,25.277,20.17,30.19v86.756
	c-11.83,4.978-20.17,16.614-20.17,30.19v10.925H38.594c-6.012,0-10.925,4.848-10.925,10.925c0,6.012,4.848,10.925,10.925,10.925
	h315.345c6.012,0,10.925-4.848,10.925-10.925c0-6.012-4.848-10.925-10.925-10.925h-14.352V314.82c0-13.576-8.339-25.277-20.17-30.19
	v-86.756c11.83-4.913,20.17-16.614,20.17-30.19V156.76h8.792c9.568,0,17.713-5.883,20.687-14.998
	c3.038-9.115-0.065-18.683-7.822-24.372L209.261,5.487c-7.499-5.495-18.295-5.495-25.794,0L31.289,117.39
	c-7.758,5.689-10.796,15.192-7.822,24.372C26.505,150.877,34.586,156.76,44.154,156.76z M144.614,325.745h-62.19V314.82
	c0-6.012,4.848-10.925,10.925-10.925h40.404c6.012,0,10.925,4.849,10.925,10.925v10.925H144.614z M102.659,282.109v-81.778h21.786
	v81.778H102.659L102.659,282.109z M144.614,167.685c0,6.012-4.848,10.925-10.925,10.925H93.35c-6.012,0-10.925-4.848-10.925-10.925
	V156.76h62.19L144.614,167.685L144.614,167.685z M254.061,284.63c-11.83,4.978-20.17,16.614-20.17,30.19v10.925h-67.362V314.82
	c0-13.576-8.339-25.277-20.17-30.19v-86.756c11.83-4.913,20.17-16.614,20.17-30.19V156.76h67.362v10.925
	c0,13.576,8.339,25.277,20.17,30.19V284.63z M317.867,325.745h-62.19V314.82c0-6.012,4.848-10.925,10.925-10.925h40.275
	c6.012,0,10.925,4.849,10.925,10.925v10.925H317.867z M275.846,282.109v-81.778h21.786v81.778H275.846L275.846,282.109z
	 M317.867,167.685c0,6.012-4.848,10.925-10.925,10.925h-40.339c-6.012,0-10.925-4.848-10.925-10.925V156.76h62.19V167.685
	L317.867,167.685z M72.21,114.352h58.246c6.012,0,10.925-4.848,10.925-10.925c0-6.012-4.848-10.925-10.925-10.925h-28.574
	l35.103-25.794h66.715c6.012,0,10.925-4.848,10.925-10.925c0-6.012-4.848-10.925-10.925-10.925h-37.107l29.737-21.851
	l152.307,111.903c0,0-0.065,0-0.129,0H44.154L72.21,114.352z"/>
</svg>