<?xml version="1.0" encoding="iso-8859-1"?>
<!-- Uploaded to: SVG Repo, www.svgrepo.com, Generator: SVG Repo Mixer Tools -->
<svg height="800px" width="800px" version="1.1" id="Layer_1" xmlns="http://www.w3.org/2000/svg" xmlns:xlink="http://www.w3.org/1999/xlink" 
	 viewBox="0 0 392.663 392.663" xml:space="preserve">
<path style="fill:#FFFFFF;" d="M370.23,314.117c0.905-0.453,0.129-185.923,0.129-185.923H22.109v231.628
	c0,6.012,4.848,10.925,10.925,10.925H270.61l21.786-7.758"/>
<path style="fill:#56ACE0;" d="M370.424,32.711c0-6.012-4.848-10.925-10.925-10.925H32.97c-6.012,0-10.925,4.848-10.925,10.925
	v73.826h348.251V32.711H370.424z"/>
<path style="fill:#FFC10D;" d="M270.61,348.962v-24.048c0-6.012,4.848-10.925,10.925-10.925h67.168V128.194H43.895v220.768H270.61z"
	/>
<g>
	<path style="fill:#FFFFFF;" d="M91.475,53.204c-6.012,0-10.925,4.848-10.925,10.925c0,6.077,4.848,10.796,10.925,10.796
		c6.012,0,10.925-4.848,10.925-10.925C102.4,58.053,97.487,53.204,91.475,53.204z"/>
	<path style="fill:#FFFFFF;" d="M301.059,53.204c-6.012,0-10.925,4.848-10.925,10.925c0,6.077,4.848,10.796,10.925,10.796
		c6.077,0,10.925-4.848,10.925-10.925C311.919,58.053,307.071,53.204,301.059,53.204z"/>
</g>
<g>
	<path style="fill:#194F82;" d="M245.398,149.915h-19.329c-6.012,0-10.925,4.848-10.925,10.925s4.848,10.925,10.925,10.925h19.329
		c6.012,0,10.925-4.848,10.925-10.925S251.41,149.915,245.398,149.915z"/>
	<path style="fill:#194F82;" d="M324.461,149.915h-19.329c-6.012,0-10.925,4.848-10.925,10.925s4.848,10.925,10.925,10.925h19.329
		c6.012,0,10.925-4.848,10.925-10.925S330.473,149.915,324.461,149.915z"/>
	<path style="fill:#194F82;" d="M87.337,201.956H68.008c-6.012,0-10.925,4.848-10.925,10.925c0,6.012,4.848,10.925,10.925,10.925
		h19.329c6.012,0,10.925-4.848,10.925-10.925C98.198,206.869,93.349,201.956,87.337,201.956z"/>
	<path style="fill:#194F82;" d="M166.335,201.956h-19.329c-6.012,0-10.925,4.848-10.925,10.925c0,6.012,4.848,10.925,10.925,10.925
		h19.329c6.012,0,10.925-4.848,10.925-10.925C177.261,206.869,172.412,201.956,166.335,201.956z"/>
	<path style="fill:#194F82;" d="M166.335,149.915h-19.329c-6.012,0-10.925,4.848-10.925,10.925s4.848,10.925,10.925,10.925h19.329
		c6.012,0,10.925-4.848,10.925-10.925S172.412,149.915,166.335,149.915z"/>
	<path style="fill:#194F82;" d="M245.398,201.956h-19.329c-6.012,0-10.925,4.848-10.925,10.925c0,6.012,4.848,10.925,10.925,10.925
		h19.329c6.012,0,10.925-4.848,10.925-10.925C256.323,206.869,251.41,201.956,245.398,201.956z"/>
	<path style="fill:#194F82;" d="M324.461,201.956h-19.329c-6.012,0-10.925,4.848-10.925,10.925c0,6.012,4.848,10.925,10.925,10.925
		h19.329c6.012,0,10.925-4.848,10.925-10.925C335.386,206.869,330.473,201.956,324.461,201.956z"/>
	<path style="fill:#194F82;" d="M87.337,254.125H68.008c-6.012,0-10.925,4.848-10.925,10.925c0,6.012,4.848,10.925,10.925,10.925
		h19.329c6.012,0,10.925-4.848,10.925-10.925C98.198,259.038,93.349,254.125,87.337,254.125z"/>
	<path style="fill:#194F82;" d="M166.335,254.125h-19.329c-6.012,0-10.925,4.848-10.925,10.925c0,6.012,4.848,10.925,10.925,10.925
		h19.329c6.012,0,10.925-4.848,10.925-10.925C177.261,259.038,172.412,254.125,166.335,254.125z"/>
	<path style="fill:#194F82;" d="M245.398,254.125h-19.329c-6.012,0-10.925,4.848-10.925,10.925c0,6.012,4.848,10.925,10.925,10.925
		h19.329c6.012,0,10.925-4.848,10.925-10.925C256.323,259.038,251.41,254.125,245.398,254.125z"/>
	<path style="fill:#194F82;" d="M324.461,254.125h-19.329c-6.012,0-10.925,4.848-10.925,10.925c0,6.012,4.848,10.925,10.925,10.925
		h19.329c6.012,0,10.925-4.848,10.925-10.925C335.386,259.038,330.473,254.125,324.461,254.125z"/>
	<path style="fill:#194F82;" d="M87.337,306.23H68.008c-6.012,0-10.925,4.848-10.925,10.925c0,6.012,4.848,10.925,10.925,10.925
		h19.329c6.012,0,10.925-4.848,10.925-10.925C98.198,311.079,93.349,306.23,87.337,306.23z"/>
	<path style="fill:#194F82;" d="M166.335,306.23h-19.329c-6.012,0-10.925,4.848-10.925,10.925c0,6.012,4.848,10.925,10.925,10.925
		h19.329c6.012,0,10.925-4.848,10.925-10.925S172.412,306.23,166.335,306.23z"/>
	<path style="fill:#194F82;" d="M91.475,31.418c-18.036,0-32.711,14.675-32.711,32.711S73.438,96.84,91.475,96.84
		s32.711-14.675,32.711-32.711S109.511,31.418,91.475,31.418z M91.475,74.925c-6.012,0-10.925-4.848-10.925-10.925
		c0-6.077,4.848-10.925,10.925-10.925c6.077,0,10.925,4.848,10.925,10.925C102.4,70.077,97.487,74.925,91.475,74.925z"/>
	<path style="fill:#194F82;" d="M301.059,31.418c-18.036,0-32.711,14.675-32.711,32.711s14.675,32.711,32.711,32.711
		c18.036,0,32.711-14.675,32.711-32.711S319.03,31.418,301.059,31.418z M301.059,74.925c-6.012,0-10.925-4.848-10.925-10.925
		c0-6.077,4.848-10.925,10.925-10.925c6.012,0,10.925,4.848,10.925,10.925C311.984,70.077,307.071,74.925,301.059,74.925z"/>
	<path style="fill:#194F82;" d="M359.564,0H32.97C14.998,0,0.388,14.675,0.388,32.711v327.24c0,18.036,14.675,32.711,32.711,32.711
		h242.812c5.624,0,11.119-1.487,15.968-4.202l83.782-47.127c10.279-5.818,16.614-16.679,16.614-28.444V32.711
		C392.145,14.675,377.535,0,359.564,0z M22.109,32.711c0-6.012,4.848-10.925,10.925-10.925h326.465
		c6.012,0,10.925,4.848,10.925,10.925v73.697H22.109V32.711z M292.396,362.99v-27.216h48.226L292.396,362.99z M370.23,314.117
		h-88.76c-6.012,0-10.925,4.848-10.925,10.925v45.77H32.97c-6.012,0-10.925-4.849-10.925-10.925V128.194h348.251
		C370.424,128.194,370.295,313.665,370.23,314.117z"/>
</g>
<polygon style="fill:#FFFFFF;" points="292.396,335.903 292.396,362.99 340.622,335.903 "/>
</svg>