<?xml version="1.0" encoding="iso-8859-1"?>
<!-- Uploaded to: SVG Repo, www.svgrepo.com, Generator: SVG Repo Mixer Tools -->
<svg height="800px" width="800px" version="1.1" id="Layer_1" xmlns="http://www.w3.org/2000/svg" xmlns:xlink="http://www.w3.org/1999/xlink" 
	 viewBox="0 0 392.598 392.598" xml:space="preserve">
<path style="fill:#FFC10D;" d="M297.244,295.305c0,6.012-4.848,10.925-10.925,10.925c-6.077,0-10.925-4.848-10.925-10.925v-33.616
	l-71.305,17.713c-5.236,1.293-10.537,1.293-15.774,0l-71.305-17.713v33.616c0,6.012-4.848,10.925-10.925,10.925
	s-10.925-4.848-10.925-10.925v-39.046l-40.404-10.02v113.584c0,6.012,4.848,10.925,10.925,10.925h260.978
	c6.012,0,10.925-4.848,10.925-10.925V246.238l-40.404,10.02v39.046L297.244,295.305L297.244,295.305z"/>
<path style="fill:#FFFFFF;" d="M359.822,106.214H32.711c-6.012,0-10.925,4.848-10.925,10.925v89.923
	c0,5.042,3.426,9.374,8.275,10.602l163.556,40.598c1.681,0.453,3.556,0.453,5.236,0l163.556-40.598
	c4.848-1.228,8.275-5.56,8.275-10.602v-89.923C370.747,111.192,365.834,106.214,359.822,106.214z"/>
<polygon style="fill:#56ACE0;" points="43.572,198.465 43.572,128 348.962,128 348.962,198.465 196.267,236.347 "/>
<path style="fill:#194F82;" d="M359.822,84.428h-72.533c-3.943-47.127-43.184-84.364-91.022-84.364s-87.079,37.236-91.022,84.364
	H32.711C14.675,84.428,0,99.103,0,117.139v89.923c0,34.327,33.099,33.745,33.099,33.745v119.014
	c0,18.036,14.675,32.711,32.711,32.711h260.978c18.036,0,32.711-14.675,32.711-32.711v-118.95c0,0,28.897-0.84,33.099-33.745
	v-89.988C392.533,99.103,377.859,84.428,359.822,84.428z M196.267,21.851c35.749,0,65.293,27.41,69.172,62.578H127.095
	C130.974,49.261,160.517,21.851,196.267,21.851z M337.584,359.887c0,6.012-4.848,10.925-10.925,10.925H65.81
	c-6.012,0-10.925-4.848-10.925-10.925V246.303l40.404,10.02v39.046c0,6.012,4.848,10.925,10.925,10.925
	c6.077,0,10.925-4.848,10.925-10.925v-33.616l71.305,17.713c5.236,1.293,10.537,1.293,15.774,0l71.305-17.713v33.616
	c0,6.012,4.848,10.925,10.925,10.925c6.077,0,10.925-4.848,10.925-10.925v-39.046l40.404-10.02v113.584H337.584z M370.747,207.063
	c0,5.042-3.426,9.374-8.275,10.602l-163.556,40.598c-1.681,0.453-3.556,0.453-5.236,0l-163.62-40.598
	c-4.848-1.228-8.275-5.56-8.275-10.602v-89.923c0-6.012,4.848-10.925,10.925-10.925h327.111c6.012,0,10.925,4.848,10.925,10.925
	V207.063L370.747,207.063z"/>
</svg>